<svg xmlns="http://www.w3.org/2000/svg" viewBox="0 0 815.55 1076.15"><defs><style>.cls-1{fill:#231815;}.cls-2{fill:#ffe200;}</style></defs><title>자산 4</title><g id="레이어_2" data-name="레이어 2"><g id="레이어_1-2" data-name="레이어 1"><path class="cls-1" d="M576.68,815.55H238.87L0,576.68V238.87L238.87,0H576.68L815.55,238.87V576.68Zm-334.52-7.94H573.39L807.61,573.39V242.16L573.39,8H242.16L8,242.16V573.39Z"/><path class="cls-1" d="M561.47,778.84H254.07L36.71,561.48V254.08L254.07,36.71h307.4L778.85,254.08v307.4Zm-304.11-8H558.18L770.9,558.19V257.37L558.18,44.66H257.36L44.65,257.37V558.19Z"/><path class="cls-1" d="M769.25,468.44H46.5a5.26,5.26,0,0,1-2.37-10c20.9-10.31,125.1-67.12,125.1-174.52a4,4,0,0,1,1.66-3.23,346.78,346.78,0,0,1-35.5-15.16,4,4,0,0,1,3.54-7.12c172,85.63,473.82,30.35,507.67,23.77a5.11,5.11,0,0,1,4.25,1.05,5.3,5.3,0,0,1,1.95,4.08c.92,105.32,99.2,161.06,118.89,171.16a5.27,5.27,0,0,1-2.44,9.95ZM57.32,460.5h701.5c-31.66-18.32-111.34-73.85-113.91-169.89-43.07,8.15-295.66,51.85-467.88-7.73a3.72,3.72,0,0,1,.14,1.06C177.17,384.05,91.13,441.71,57.32,460.5ZM648.13,290h0Z"/><path class="cls-1" d="M276,468.44c-94.64,0-106.32-181.39-106.77-189.11a4,4,0,0,1,3.74-4.2,4,4,0,0,1,4.19,3.73c.11,1.82,11.65,181.64,98.84,181.64a4,4,0,1,1,0,7.94Z"/><path class="cls-1" d="M527.59,468.44a4,4,0,0,1,0-7.94c71.74,0,110.5-167.42,110.89-169.11a4,4,0,1,1,7.75,1.76C644.6,300.3,605.61,468.44,527.59,468.44Z"/><path class="cls-1" d="M307.57,405A22.43,22.43,0,1,1,330,382.53,22.45,22.45,0,0,1,307.57,405Zm0-36.9a14.48,14.48,0,1,0,14.48,14.47A14.48,14.48,0,0,0,307.57,368.06Z"/><path class="cls-1" d="M354.28,468.44c-104.47,0-117.43-161.6-117.93-168.48a4,4,0,0,1,3.68-4.25,4.12,4.12,0,0,1,4.25,3.67c.11,1.61,12.9,161.12,110,161.12a4,4,0,1,1,0,7.94Z"/><path class="cls-1" d="M219.08,589.36a40.59,40.59,0,1,1,40-47.54h0a40.58,40.58,0,0,1-40,47.54Zm0-73.23a33.17,33.17,0,0,0-5.6.48,32.64,32.64,0,0,0-13.21,58.85,32.35,32.35,0,0,0,24.37,5.47,32.68,32.68,0,0,0,26.58-37.75h0A32.68,32.68,0,0,0,219.12,516.13Z"/><path class="cls-1" d="M642.35,534.57a22.42,22.42,0,1,1,22.42-22.42A22.44,22.44,0,0,1,642.35,534.57Zm0-36.9a14.48,14.48,0,1,0,14.47,14.48A14.5,14.5,0,0,0,642.35,497.67Z"/><path class="cls-1" d="M443.89,468.44c-104.44,0-117.82-157.19-117.93-158.78a4,4,0,1,1,7.91-.61c.13,1.51,12.92,151.45,110,151.45a4,4,0,1,1,0,7.94Z"/><path class="cls-1" d="M527.59,468.44c-104.44,0-117.82-153.33-117.94-154.88a4,4,0,1,1,7.92-.63c.12,1.48,12.91,147.57,110,147.57a4,4,0,0,1,0,7.94Z"/><path class="cls-1" d="M574.62,443.41l-.54,0c-75.18-10-93.32-131.17-94.05-136.32a4,4,0,1,1,7.87-1.13c.17,1.2,18,120.34,87.24,129.57a4,4,0,0,1-.52,7.91Z"/><path class="cls-1" d="M606.76,392.83a4,4,0,0,1-1.53-.31c-59.22-24.67-52-92.63-51.89-93.31a4,4,0,1,1,7.9.92c-.29,2.55-6.59,62.71,47,85.06a4,4,0,0,1-1.53,7.64Z"/><path class="cls-1" d="M132.32,631.71a4,4,0,0,1-4-4V482.67a4,4,0,1,1,8,0V627.74A4,4,0,0,1,132.32,631.71Z"/><path class="cls-1" d="M683.23,631.71h-.09a4,4,0,0,1-3.89-4.06l3-145.07a4,4,0,0,1,4-3.89h.09a4,4,0,0,1,3.88,4.06l-3,145.07A4,4,0,0,1,683.23,631.71Z"/><circle class="cls-2" cx="537.99" cy="163.23" r="36.61" transform="matrix(0.58, -0.82, 0.82, 0.58, 94.83, 509.19)"/><path class="cls-1" d="M356.67,309.48l-.38-.1A15.09,15.09,0,0,1,345.39,299c-4.77-14,3.68-38.68,14.24-52.11,11.72-14.88,12.81-21,12.83-21,1.3-8.4,4.35-12.39,6.59-14.24-.78-5.47,3-10.56,3.54-11.2l2.17-2.77,2.37,2.59c1.49,1.63,2.77,2.89,2.78,2.91a12.79,12.79,0,0,1,4,5.12c9.94,2.23,13.08,9.81,13.46,14.57.23.24.48.48.66.64a5.66,5.66,0,0,1,2.75,4.38c.21,1.6.08,6.44-7.11,12.53-5,4.26-.34,13.13-.29,13.22.52.66,3.89,6.57-.2,25.64-3.81,17.77-2.52,26.23-2.5,26.31l.55,3.42Zm26.68-93.64s-3.56,1.66-5,10.89c-.06.59-1.13,7.48-14,23.88-9.41,11.95-17.26,34.86-13.29,46.49,1.17,3.42,3.25,5.52,6.36,6.41l37.16-.39c-.15-4.26.13-12.5,2.84-25.11,3.53-16.47.92-21.32.9-21.36-.41-.72-7.17-13.39,1.56-20.8,5.06-4.28,5.06-7.07,5-7.26a3,3,0,0,0-.5-.41,16.11,16.11,0,0,1-2.36-2.42l-.59-.81,0-1c0-.87-.23-8.72-10.36-10.13l-2.73-.38.15-2.56c-.06-.27-.46-1.54-2.61-3.3l-.37-.36a6.15,6.15,0,0,0-.32,4.57l1.34,3.09-3.22,1ZM405,228.69h0Z"/><path class="cls-1" d="M350.2,304.73a5.49,5.49,0,0,1-1.16-.13c-.69-.12-1.43-.27-2.17-.46a23.65,23.65,0,0,1-15.19-12c-3.85-7.59-3.52-17.07,1-28.19,2.49-6.15,1.91-13.27-.16-15.8a4.16,4.16,0,0,0-3.32-1.5,4.7,4.7,0,0,0-3.69,2,3.54,3.54,0,0,0-.79,2.87,2.54,2.54,0,0,0,.9,1.52c.09,0,.58.11.94.16,1.49.23,3.75.57,4.94,2.34a4.61,4.61,0,0,1,.54,3.8,3.81,3.81,0,0,1-2.66,2.69c-2.64.83-6.44-.19-9.08-2.47-3.79-3.29-5.08-8.84-3.27-14.13s7.57-9.6,15.54-8c8.72,1.72,11.54,11.21,11.27,19.53-.12,3.51-1.4,8-2.64,12.29-1.32,4.57-2.68,9.3-2.53,12.49.16,3.52,3.86,9,9.76,11.95l-.75,1.47,1.7-.47,1.18,4.33-3.93-1.79c-6.66-3.37-11.67-9.81-11.93-15.31-.17-3.84,1.28-8.89,2.68-13.77,1.17-4.08,2.39-8.3,2.49-11.33.1-3.24-.17-13.94-8.07-15.5-5.6-1.09-9.81,1.88-11,5.41-1.28,3.75-.44,7.62,2.13,9.84,2.24,1.95,4.93,2,5.41,1.62a3.89,3.89,0,0,0-.11-.4c-.23-.33-1.69-.55-2.25-.64a7,7,0,0,1-2.19-.57,6.3,6.3,0,0,1-2.92-4.1,7.38,7.38,0,0,1,1.46-6.17,8.39,8.39,0,0,1,13.28-.63c3.3,4,3.64,12.73.77,19.81-4.05,10-4.43,18.38-1.12,24.9a19.84,19.84,0,0,0,12.61,10c.65.17,1.29.3,1.92.41a2,2,0,0,1,2.69.79,2.14,2.14,0,0,1-.7,2.86A2.94,2.94,0,0,1,350.2,304.73Z"/><path class="cls-1" d="M374.49,308.26a2,2,0,0,1-1.34-.52,2,2,0,0,1-.12-2.81c4.59-5,9.27-16.74,8.66-25-.15-2.07-.73-4.85-2.6-6.38-6.13-4.95-12.88.84-13.16,1.09a2,2,0,1,1-2.62-3c3.27-2.87,11.31-6.82,18.27-1.18,2.4,1.94,3.77,5,4.07,9.17.71,9.68-4.44,22.29-9.7,28A2,2,0,0,1,374.49,308.26Z"/><path class="cls-1" d="M259.6,302.64a2,2,0,0,1-1.45-3.33c5.24-5.7,10.59-19.13,9.89-28.58-.26-3.5-1.29-6-3.06-7.43-7.07-5.72-14.94.95-15.28,1.24a2,2,0,0,1-2.61-3c3.65-3.19,12.63-7.6,20.39-1.33,2.66,2.15,4.18,5.59,4.53,10.22.78,10.75-5.13,25.26-10.95,31.57A1.93,1.93,0,0,1,259.6,302.64Z"/><path class="cls-1" d="M256.22,200s10.85,21.74,21.62,15.52-3-23.09-3-23.09,7.47,7.76,8.74,14.05-1.18,9.31-4,11.44-12.87,5.93-23.31-13.14Z"/><path class="cls-1" d="M304.2,305.72h-17v-6h11.29l1.07-26.52c1.74-30.67-.27-37-2.4-43.66a64.73,64.73,0,0,1-2.31-8.85c-1.93-10.56.15-20,6.16-28a29.66,29.66,0,0,0,5.52-19.12c-.1-2.11-.62-3.6-1.39-4.09s-2.57-.1-3.23.19l-17.64,9.2-1.43-.85c-.63-.38-15.56-9-24.31,2.32-8.95,11.54-.37,23,0,23.54l.72.93-.12,1.19c-2.65,25.89-5.06,30.07-16.63,50.13l-1.75,3a54.54,54.54,0,0,0-6.54,35.45l-5.89.92a60.5,60.5,0,0,1,7.26-39.35l1.75-3c11.14-19.3,13.28-23,15.76-46.63-4-5.87-8.18-18.34.72-29.83s23.14-8.42,30.59-4.61l14.89-7.76c.61-.28,5.07-2.26,8.91.05,2.63,1.58,4.07,4.58,4.29,8.9a35.76,35.76,0,0,1-6.72,23c-1.85,2.47-7.5,10-5.06,23.33a60,60,0,0,0,2.13,8.11c2.3,7.22,4.47,14,2.67,45.76Z"/><path class="cls-1" d="M78,984.31q-6.6,7.08-13.36,13.05t-13.12,10.69q-6.37,4.71-12.1,8.33t-10.14,6a10.69,10.69,0,0,1-2.67-2.12,4.88,4.88,0,0,1-1.42-2.91Q33.55,1012,42,1005.45a204.4,204.4,0,0,0,16.35-14.14,192.13,192.13,0,0,0,15-16.19,170.5,170.5,0,0,0,12.89-17.84H59.64a14.74,14.74,0,0,0-5.65,1.1c-1.79.73-3.52,1.47-5.19,2.2a21.39,21.39,0,0,1-4.87-1.65,31.89,31.89,0,0,1-4.64-2.65,39.26,39.26,0,0,1-3.62-2.77A5.46,5.46,0,0,1,34,951.59c-.1-.21,0-.67.32-1.4s.63-1,.94-.93a18.1,18.1,0,0,0,3.54.47c1.62.11,3.51.21,5.66.32s4.5.16,7.07.16H81.34a17.67,17.67,0,0,0,6.52-1,12.92,12.92,0,0,0,3.69-2.2,16,16,0,0,1,3.46.47,28.87,28.87,0,0,1,3.85,1.18,11.88,11.88,0,0,1,2.91,1.56c.73.57.94,1.12.63,1.63q-4.56,7.74-9.67,14.73T82.12,979.91c2.83,1.79,5.61,3.59,8.33,5.43s5.27,3.56,7.62,5.18,4.43,3.09,6.21,4.4a37,37,0,0,1,4.09,3.38,4.3,4.3,0,0,1,.94,3.46,16.82,16.82,0,0,1-.94,4.56,15.86,15.86,0,0,1-1.81,3.69c-.68,1-1.23,1.24-1.65.71q-4.56-5-11.55-12T78,984.31ZM107.27,1023q12.57,1.11,20.2,7.88a22,22,0,0,1,7.62,17.19,22.15,22.15,0,0,1-8.8,18.13,31.14,31.14,0,0,1-10.22,5.13,45.59,45.59,0,0,1-13.2,1.81,46.18,46.18,0,0,1-13.36-1.81,31,31,0,0,1-10.22-5.13,23.58,23.58,0,0,1-6.6-7.88,23.42,23.42,0,0,1,5.5-27.75q7.86-6.78,21.22-7.57a9.21,9.21,0,0,0,.31-1.57,6.42,6.42,0,0,0-.47-2.44,6.07,6.07,0,0,0-2.2-2.43c0-.95.6-1.44,1.81-1.5a16.69,16.69,0,0,1,4.09.4,15.32,15.32,0,0,1,4.08,1.41c1.21.63,1.81,1.16,1.81,1.57a5.86,5.86,0,0,1-.55,2C107.92,1021.28,107.58,1022.14,107.27,1023Zm-5,42.44q9.9,0,15.88-4.87a16.88,16.88,0,0,0,.07-25.7q-5.89-4.8-15.64-4.8-9.58,0-15.4,4.8a15.74,15.74,0,0,0-5.81,12.81,16.09,16.09,0,0,0,5.73,12.89Q92.82,1065.41,102.24,1065.42Zm57.69-92.11c.52-.1,1.17.47,2,1.73a26.61,26.61,0,0,1,2.12,4.24,17.45,17.45,0,0,1,1.18,4.4c.16,1.37-.13,2.05-.86,2.05l-30-.47v9a90.55,90.55,0,0,1-.95,14.46q-.95,5.66-1.88,9.43a6.21,6.21,0,0,1-3.07,1.81,7.08,7.08,0,0,1-3.38.23c-.31-2.2-.58-5.68-.78-10.45s-.32-9.93-.32-15.48V940.46c0-.42-.52-1.05-1.57-1.89a33.65,33.65,0,0,0-3.85-2.59q-2.28-1.34-4.56-2.59l-3.69-2c-.21-.1-.24-.34-.08-.7a3.93,3.93,0,0,1,.86-1.18,8.6,8.6,0,0,1,1.34-1.1,2.25,2.25,0,0,1,1.18-.48,36.18,36.18,0,0,1,5.5.63q3.61.63,7.15,1.5a51.2,51.2,0,0,1,6.21,1.88c1.78.69,2.62,1.29,2.51,1.81a37.93,37.93,0,0,0-.47,3.93q-.15,2.21-.15,4.56v37.09Z"/><path class="cls-1" d="M102.87,1074.12a47.29,47.29,0,0,1-13.65-1.85,32.22,32.22,0,0,1-10.54-5.3,24.78,24.78,0,0,1-6.88-8.21,24.43,24.43,0,0,1,5.74-29c5.24-4.52,12.32-7.13,21.07-7.76a4.08,4.08,0,0,0,.11-.63,5.66,5.66,0,0,0-.39-2.06,5.27,5.27,0,0,0-1.87-2l-.41-.29v-.51c0-.56.2-2.38,2.77-2.5a18.11,18.11,0,0,1,4.33.42,17,17,0,0,1,4.35,1.5c1.16.61,2.34,1.38,2.34,2.46a6.78,6.78,0,0,1-.62,2.35c-.19.45-.37.9-.55,1.35,8,.9,14.51,3.59,19.46,8a23.06,23.06,0,0,1,8,17.93A23.09,23.09,0,0,1,126.9,1067a32.32,32.32,0,0,1-10.54,5.3A46.71,46.71,0,0,1,102.87,1074.12Zm-4.65-57.94a6.2,6.2,0,0,1,2,2.42,7.51,7.51,0,0,1,.54,2.81,8,8,0,0,1-.34,1.81l-.18.72-.73,0c-8.64.51-15.58,3-20.62,7.33a22.4,22.4,0,0,0-5.27,26.53,22.87,22.87,0,0,0,6.33,7.56,30.19,30.19,0,0,0,9.89,4.95,45.06,45.06,0,0,0,13.07,1.77,44.43,44.43,0,0,0,12.91-1.77,30.11,30.11,0,0,0,9.89-5,21.11,21.11,0,0,0,8.42-17.34,21.14,21.14,0,0,0-7.29-16.44c-4.89-4.35-11.49-6.92-19.62-7.63l-1.31-.12.46-1.23c.32-.85.66-1.72,1-2.63a6.44,6.44,0,0,0,.46-1.44,4.86,4.86,0,0,0-1.26-.82,14.28,14.28,0,0,0-3.83-1.32,15.57,15.57,0,0,0-3.84-.38A1.61,1.61,0,0,0,98.22,1016.18Zm4,50.24c-6.5,0-11.82-1.72-15.81-5.11a17.06,17.06,0,0,1-6.09-13.65,16.77,16.77,0,0,1,6.17-13.58c4-3.34,9.44-5,16-5s12.18,1.69,16.28,5a17.88,17.88,0,0,1-.08,27.25C114.6,1064.71,109,1066.42,102.24,1066.42Zm.31-35.37c-6.12,0-11.09,1.54-14.76,4.57a14.67,14.67,0,0,0-5.45,12,15,15,0,0,0,5.38,12.12c3.62,3.08,8.51,4.64,14.52,4.64,6.33,0,11.46-1.56,15.24-4.65a15.87,15.87,0,0,0,.08-24.15C113.83,1032.59,108.78,1031.05,102.55,1031.05Zm-73.25-7.56-.48-.26a12,12,0,0,1-2.91-2.32,5.82,5.82,0,0,1-1.68-3.49l-.06-.61.51-.33c5.5-3.52,11.1-7.5,16.67-11.82a206.2,206.2,0,0,0,16.27-14.07,191.59,191.59,0,0,0,14.93-16.11,168.58,168.58,0,0,0,11.84-16.2H59.64a13.78,13.78,0,0,0-5.27,1c-1.78.73-3.5,1.47-5.17,2.2l-.29.12-.31-.06a22.44,22.44,0,0,1-5.1-1.73,33.39,33.39,0,0,1-4.78-2.72A42,42,0,0,1,35,954.26a5.93,5.93,0,0,1-1.93-2.33,2.88,2.88,0,0,1,.34-2.13c.73-1.68,1.67-1.65,2.17-1.49a17.75,17.75,0,0,0,3.29.43c1.62.1,3.5.21,5.64.31s4.48.16,7,.16H81.34a16.92,16.92,0,0,0,6.13-.87,12.07,12.07,0,0,0,3.42-2l.28-.25h.38a16.31,16.31,0,0,1,3.68.5,27.75,27.75,0,0,1,4,1.22,13,13,0,0,1,3.16,1.7c1.63,1.28,1.15,2.48.87,2.94-3,5.16-6.31,10.14-9.71,14.8-3.18,4.35-6.5,8.54-9.9,12.47,2.48,1.57,5,3.19,7.37,4.82q4.09,2.75,7.63,5.19c2.34,1.61,4.44,3.1,6.24,4.42a37.07,37.07,0,0,1,4.2,3.48,5.26,5.26,0,0,1,1.23,4.23,18.06,18.06,0,0,1-1,4.83,17.46,17.46,0,0,1-1.92,3.92,2.74,2.74,0,0,1-1.94,1.41,1.59,1.59,0,0,1-1.32-.65c-3-3.27-6.85-7.31-11.48-11.94-4.42-4.42-9.31-9-14.55-13.69-4.19,4.45-8.48,8.61-12.76,12.4-4.51,4-9,7.59-13.2,10.74s-8.34,6-12.16,8.37-7.25,4.43-10.2,6Zm-3-5.69a4.19,4.19,0,0,0,1,1.74,10.66,10.66,0,0,0,2,1.66c2.8-1.52,6-3.42,9.58-5.67,3.78-2.38,7.83-5.17,12-8.29s8.6-6.69,13.06-10.63,8.94-8.31,13.29-13l.67-.71.73.65c5.54,4.91,10.71,9.77,15.37,14.42s8.37,8.53,11.38,11.83a3,3,0,0,0,.29-.37,15.37,15.37,0,0,0,1.69-3.47,15.91,15.91,0,0,0,.89-4.29,3.41,3.41,0,0,0-.66-2.68,35,35,0,0,0-4-3.28c-1.78-1.31-3.86-2.78-6.18-4.38s-4.9-3.35-7.62-5.19-5.51-3.65-8.3-5.4l-1-.63.77-.88c3.63-4.14,7.18-8.59,10.55-13.21s6.59-9.51,9.6-14.62a1.73,1.73,0,0,0-.37-.36,11.11,11.11,0,0,0-2.65-1.42,27.23,27.23,0,0,0-3.71-1.13,15.71,15.71,0,0,0-2.88-.44,14.65,14.65,0,0,1-3.67,2.12,18.58,18.58,0,0,1-6.9,1H51.55c-2.59,0-5-.06-7.12-.16s-4-.21-5.68-.32a22,22,0,0,1-3.36-.41c0,.07-.09.16-.14.27a4.63,4.63,0,0,0-.26.75h0a5.67,5.67,0,0,0,1.34,1.42,40,40,0,0,0,3.53,2.7A30.35,30.35,0,0,0,44.35,958a20.67,20.67,0,0,0,4.34,1.52c1.59-.7,3.23-1.39,4.91-2.09a15.81,15.81,0,0,1,6-1.17H88l-1,1.53a170,170,0,0,1-13,18A193.86,193.86,0,0,1,59,992a204.66,204.66,0,0,1-16.43,14.21C37.15,1010.45,31.69,1014.34,26.32,1017.8ZM35,950.22h0Zm91.13,71a6.21,6.21,0,0,1-1.32-.14l-.67-.15-.1-.69c-.32-2.23-.58-5.78-.79-10.55s-.32-9.94-.32-15.52V940.54a4.75,4.75,0,0,0-1.2-1.19,32,32,0,0,0-3.73-2.51q-2.27-1.32-4.53-2.58l-3.7-2a1.42,1.42,0,0,1-.51-2,4.73,4.73,0,0,1,1.08-1.49,10,10,0,0,1,1.48-1.22,3.17,3.17,0,0,1,1.74-.65,36.18,36.18,0,0,1,5.67.65c2.41.42,4.83.92,7.22,1.51a52.46,52.46,0,0,1,6.33,1.92c1.71.66,3.42,1.52,3.13,2.93a36.07,36.07,0,0,0-.45,3.81c-.1,1.42-.15,2.93-.15,4.49V978l24.42-5.69c1.31-.26,2.35,1.12,3,2.18a28.21,28.21,0,0,1,2.2,4.4,18,18,0,0,1,1.24,4.66,3.21,3.21,0,0,1-.5,2.58,1.76,1.76,0,0,1-1.35.58l-29-.46v8a92.68,92.68,0,0,1-1,14.62c-.63,3.78-1.27,7-1.9,9.51l-.06.23-.16.19a7.21,7.21,0,0,1-3.55,2.11A9.42,9.42,0,0,1,126.13,1021.27Zm-.21-2a6.92,6.92,0,0,0,2.22-.31,5.32,5.32,0,0,0,2.43-1.33c.6-2.44,1.2-5.5,1.81-9.11a91,91,0,0,0,.93-14.29v-10l30.89.49a2.94,2.94,0,0,0,0-.93,16.35,16.35,0,0,0-1.12-4.15,25.45,25.45,0,0,0-2-4.08,3.76,3.76,0,0,0-1-1.25l-26.71,6.22V942.19c0-1.61.05-3.17.16-4.63a34.9,34.9,0,0,1,.44-3.81,7.08,7.08,0,0,0-1.85-.92A50.26,50.26,0,0,0,126,931c-2.34-.57-4.72-1.07-7.08-1.48a34.32,34.32,0,0,0-5.33-.62,1.52,1.52,0,0,0-.63.31,8.21,8.21,0,0,0-1.18,1,4.77,4.77,0,0,0-.5.59l3.18,1.76c1.53.85,3.06,1.71,4.58,2.61a32.78,32.78,0,0,1,4,2.67c1.37,1.1,2,1.9,2,2.67v53.76c0,5.55.11,10.75.31,15.43C125.43,1013.85,125.66,1017.08,125.92,1019.26Zm8-85.74v0Zm-23.26-3.08.07,0Z"/><path class="cls-1" d="M309.72,1004a6,6,0,0,1,2.44,1.34,41.06,41.06,0,0,1,3.69,3.13,34.24,34.24,0,0,1,3.38,3.72,5.8,5.8,0,0,1,1.49,3.16c0,.82-.63,1.23-1.88,1.23H257.69v29.86a92.44,92.44,0,0,1-1,13.83q-1,6.76-1.81,11.63a5.26,5.26,0,0,1-3.06,1.65,8.88,8.88,0,0,1-3.54.08q-.31-3.3-.63-9.43t-.31-13.83v-33.79H207.87a14.57,14.57,0,0,0-5.66,1.1q-2.69,1.1-5.19,2.2a21.89,21.89,0,0,1-4.87-1.65,32.42,32.42,0,0,1-4.64-2.65,42.66,42.66,0,0,1-3.62-2.77,5.46,5.46,0,0,1-1.65-1.92c-.1-.21,0-.67.32-1.4s.63-1,.94-.93a18.1,18.1,0,0,0,3.54.47c1.62.11,3.51.21,5.66.32s4.5.15,7.07.15h96.28a10.05,10.05,0,0,0,3.3-.86q2.19-.87,4.32-1.89l3.85-1.88A7.34,7.34,0,0,1,309.72,1004ZM194.51,996.1a4,4,0,0,1-2.28-1.88,4.3,4.3,0,0,1-.87-2.83A133.82,133.82,0,0,0,207,983.53a159,159,0,0,0,15.88-10.61,135.37,135.37,0,0,0,14.46-12.66,85.4,85.4,0,0,0,11.39-14.14c.32-.42.16-1-.47-1.81a16.31,16.31,0,0,0-2.51-2.44c-1.05-.83-2.13-1.62-3.23-2.35s-2-1.31-2.75-1.73a2.36,2.36,0,0,1,.95-1.65c.63-.58,1.15-1.08,1.57-1.5s1.36-.26,3.14.16,3.75,1,5.9,1.73,4.21,1.52,6.21,2.36a34.64,34.64,0,0,1,4.24,2,15.72,15.72,0,0,1,1.65,1.18c.57.47.6,1.18.08,2.12a73.93,73.93,0,0,1-4.32,6.76c-1.52,2.1-3.18,4.19-5,6.29q6.29,2.21,14,5.11t14.62,5.66q6.92,2.75,12.18,5a46.94,46.94,0,0,1,6.84,3.37,5.46,5.46,0,0,1,1.65,3.31,23.2,23.2,0,0,1,.55,5,17.56,17.56,0,0,1-.47,4.32c-.31,1.2-.73,1.65-1.26,1.33q-2.82-1.87-9.19-5.5t-14-7.78q-7.63-4.15-15.48-8.25T250,962a123.92,123.92,0,0,1-15.48,13.44,155.29,155.29,0,0,1-15.72,10.14,125.57,125.57,0,0,1-14.07,6.84Q198.27,995,194.51,996.1Z"/><path class="cls-1" d="M249.73,1074.73a8.06,8.06,0,0,1-1.66-.16l-.73-.14-.07-.74c-.22-2.2-.43-5.39-.64-9.48s-.31-8.71-.31-13.88v-32.79H207.87a13.79,13.79,0,0,0-5.28,1q-2.67,1.1-5.17,2.19l-.29.13-.31-.06a22.44,22.44,0,0,1-5.1-1.73,33,33,0,0,1-4.78-2.73,40.4,40.4,0,0,1-3.7-2.84,6,6,0,0,1-1.94-2.33,2.91,2.91,0,0,1,.34-2.14c.73-1.67,1.67-1.64,2.17-1.48a18.12,18.12,0,0,0,3.29.42c1.62.11,3.5.21,5.65.32s4.47.15,7,.15h96.28a8.83,8.83,0,0,0,2.93-.79c1.44-.57,2.87-1.19,4.25-1.86s2.69-1.3,3.84-1.88a6.83,6.83,0,0,1,2.65-1c.49,0,1.2.19,3,1.53a42,42,0,0,1,3.79,3.22,35.42,35.42,0,0,1,3.48,3.83,6.53,6.53,0,0,1,1.7,3.77c0,.52-.21,2.23-2.88,2.23H258.69v28.86a93.32,93.32,0,0,1-1,14q-1,6.76-1.81,11.64l0,.29-.18.21a6.32,6.32,0,0,1-3.62,2A12.31,12.31,0,0,1,249.73,1074.73Zm-.55-2a8.57,8.57,0,0,0,2.42-.18,4.38,4.38,0,0,0,2.33-1.13q.76-4.77,1.75-11.32a92,92,0,0,0,1-13.68v-30.86h62.15c.71,0,.88-.16.88-.16a4.58,4.58,0,0,0-1.28-2.61,33.34,33.34,0,0,0-3.28-3.61,36.49,36.49,0,0,0-3.6-3.06,7.23,7.23,0,0,0-1.84-1.13,9.06,9.06,0,0,0-1.75.75q-1.74.87-3.87,1.89c-1.43.69-2.9,1.34-4.39,1.92a10.85,10.85,0,0,1-3.66.93H199.77c-2.59,0-5-.05-7.12-.16s-4.05-.21-5.68-.31a22,22,0,0,1-3.36-.41,2.33,2.33,0,0,0-.13.27,3.88,3.88,0,0,0-.27.75h0a5.9,5.9,0,0,0,1.34,1.41,39.45,39.45,0,0,0,3.53,2.71,31.27,31.27,0,0,0,4.49,2.56,20.25,20.25,0,0,0,4.34,1.51q2.39-1,4.92-2.08a15.77,15.77,0,0,1,6-1.17h40.45v34.79c0,5.14.1,9.77.31,13.78C248.81,1067.71,249,1070.59,249.18,1072.71Zm-66-63.23h0Zm11.31-12.34-.27-.07a5,5,0,0,1-2.87-2.31,5.23,5.23,0,0,1-1-3.5l.07-.57.54-.23a131,131,0,0,0,15.52-7.8,157.43,157.43,0,0,0,15.77-10.54,134.37,134.37,0,0,0,14.36-12.56,85.19,85.19,0,0,0,11.25-14,2,2,0,0,0-.4-.65,15.28,15.28,0,0,0-2.36-2.29c-1-.81-2.09-1.59-3.15-2.3s-2-1.28-2.69-1.7l-.51-.28v-.58A3.31,3.31,0,0,1,240,935.4c.62-.56,1.13-1,1.54-1.46.62-.62,1.76-.65,4.08-.11,1.8.42,3.81,1,6,1.75s4.28,1.55,6.27,2.39a35.75,35.75,0,0,1,4.39,2.11,15,15,0,0,1,1.75,1.26c.46.37,1.4,1.44.32,3.38a74.56,74.56,0,0,1-4.38,6.86c-1.26,1.73-2.63,3.49-4.07,5.23,3.89,1.38,8.13,2.94,12.65,4.64,5.11,1.94,10,3.84,14.63,5.67s8.69,3.52,12.21,5a47.84,47.84,0,0,1,7,3.47,6.27,6.27,0,0,1,2.06,3.91,24.68,24.68,0,0,1,.57,5.25,18.56,18.56,0,0,1-.5,4.57,2.84,2.84,0,0,1-1.37,2.07,1.49,1.49,0,0,1-1.37-.13c-1.9-1.26-5-3.1-9.18-5.49s-8.91-5-14-7.77-10.27-5.54-15.47-8.24c-4.92-2.56-9.29-4.78-13-6.59a125.18,125.18,0,0,1-15.1,13,157.37,157.37,0,0,1-15.82,10.21,131,131,0,0,1-14.18,6.89c-4.33,1.73-7.79,3-10.32,3.72Zm-2.16-5.09a4.18,4.18,0,0,0,.69,1.62,3.5,3.5,0,0,0,1.46,1.39c2.43-.73,5.74-1.93,9.83-3.58a124.23,124.23,0,0,0,14-6.78,155.13,155.13,0,0,0,15.62-10.08,122.66,122.66,0,0,0,15.36-13.33l.5-.51.65.31c3.86,1.88,8.47,4.21,13.7,6.93s10.42,5.49,15.5,8.26,9.78,5.4,14,7.79c3.95,2.25,6.92,4,8.84,5.27a3.49,3.49,0,0,0,.15-.48,16.5,16.5,0,0,0,.44-4.07,22.59,22.59,0,0,0-.53-4.82c-.4-1.86-1-2.49-1.25-2.7a48,48,0,0,0-6.65-3.28c-3.5-1.51-7.59-3.2-12.16-5s-9.49-3.72-14.6-5.65-9.73-3.61-14-5.1l-1.37-.48.94-1.11c1.76-2.07,3.41-4.17,4.91-6.23a72.37,72.37,0,0,0,4.26-6.66c.25-.45.3-.74.16-.86a14.88,14.88,0,0,0-1.54-1.09,31.72,31.72,0,0,0-4.11-2c-1.95-.82-4-1.61-6.15-2.33s-4.07-1.3-5.8-1.71a7.67,7.67,0,0,0-2.31-.32c-.41.41-.91.88-1.5,1.43a3.19,3.19,0,0,0-.42.45c.61.38,1.32.83,2.11,1.35,1.11.75,2.22,1.56,3.29,2.41a17.05,17.05,0,0,1,2.67,2.6c1.18,1.47.92,2.46.49,3A87.06,87.06,0,0,1,238.05,961a136.39,136.39,0,0,1-14.57,12.75,158.64,158.64,0,0,1-16,10.67A136.38,136.38,0,0,1,192.37,992.05Z"/><path class="cls-1" d="M412.52,981.33a27.23,27.23,0,0,1-2.28,11.31,24.89,24.89,0,0,1-6.45,8.65,29.28,29.28,0,0,1-10.06,5.58,43.86,43.86,0,0,1-25.93,0,29.19,29.19,0,0,1-10.06-5.58,24.89,24.89,0,0,1-6.45-8.65A27.07,27.07,0,0,1,349,981.33q0-12.11,7.55-19.57t20.28-8.57a7.32,7.32,0,0,0,.62-2.2,6.42,6.42,0,0,0-.47-2.44,6.14,6.14,0,0,0-2.2-2.43c0-1,.6-1.44,1.81-1.49a16.17,16.17,0,0,1,4.09.39,15.45,15.45,0,0,1,4.08,1.41c1.21.63,1.81,1.16,1.81,1.57a7.06,7.06,0,0,1-.63,2.36c-.42,1-.78,2-1.1,2.83q12.57,1.11,20.12,8.57T412.52,981.33Zm-52-.16q0,9.51,5.58,15.05t14.69,5.54q9.12,0,14.7-5.54T401,981.17q0-9.81-5.58-15.44t-14.7-5.62q-9.11,0-14.69,5.62T360.49,981.17Zm100.28,74.35a5.07,5.07,0,0,1,2.28,1.33,34.23,34.23,0,0,1,3.38,3.22,29.07,29.07,0,0,1,3,3.8,6.31,6.31,0,0,1,1.25,3.15c0,.82-.63,1.23-1.88,1.23H405a36.83,36.83,0,0,1-9.12-.92,12.1,12.1,0,0,1-5.42-2.85,9.84,9.84,0,0,1-2.67-4.89,30.86,30.86,0,0,1-.71-7.06v-17c0-.41-.39-.91-1.18-1.49a23.09,23.09,0,0,0-2.83-1.73q-1.65-.86-3.45-1.65a26.36,26.36,0,0,0-2.91-1.1c-.21-.1-.24-.39-.08-.86a7.72,7.72,0,0,1,.71-1.5,14,14,0,0,1,1-1.49c.36-.47.71-.71,1-.71a31.08,31.08,0,0,1,3.22.24c1.42.16,2.94.34,4.56.55s3.25.47,4.87.79a27.29,27.29,0,0,1,4.17,1.1,11.45,11.45,0,0,1,1.57.78c.52.32.68,1,.47,2s-.39,2.46-.55,3.93a43.08,43.08,0,0,0-.23,4.4v16.19c0,2.72.49,4.42,1.49,5.1s2.7,1,5.11,1l43.07-.16a10.13,10.13,0,0,0,3.3-.87q2.19-.86,4.32-1.88c1.41-.68,2.7-1.31,3.85-1.89A7.5,7.5,0,0,1,460.77,1055.52Zm-9.59-64.45V968.28H438.92a22,22,0,0,0-6.91.94,51.67,51.67,0,0,0-5.5,2.2,9,9,0,0,1-3.15-1.49,34.08,34.08,0,0,1-3.22-2.46,28.42,28.42,0,0,1-2.59-2.48c-.74-.8-1.21-1.31-1.42-1.52s-.31-.86,0-1.61.58-1.12.79-1.12c1.36,0,2.69,0,4,.07s2.72.11,4.24.16,3.22.11,5.11.16,4.08.08,6.6.08h14.3V940.4c0-.42-.52-1-1.57-1.88a33.68,33.68,0,0,0-3.85-2.58q-2.28-1.32-4.56-2.58l-3.69-2c-.21-.11-.24-.34-.08-.71a4,4,0,0,1,.86-1.17,9.21,9.21,0,0,1,1.34-1.1,2.31,2.31,0,0,1,1.18-.47,36,36,0,0,1,5.5.63q3.62.63,7.15,1.5a51.2,51.2,0,0,1,6.21,1.88c1.78.69,2.62,1.29,2.52,1.81a35.22,35.22,0,0,0-.48,3.93q-.15,2.21-.15,4.56v70.89a90.46,90.46,0,0,1-.95,14.46c-.63,3.77-1.25,6.92-1.88,9.43a6.21,6.21,0,0,1-3.07,1.81,7,7,0,0,1-3.38.23q-.46-3.3-.78-10.45t-.32-15.48V998.15H438.92a22,22,0,0,0-6.91.94,49.64,49.64,0,0,0-5.5,2.2,9.42,9.42,0,0,1-3.15-1.49,37.81,37.81,0,0,1-3.22-2.46,27.15,27.15,0,0,1-2.59-2.49l-1.42-1.52c-.31-.32-.31-.86,0-1.6s.58-1.13.79-1.13c1.36,0,2.69,0,4,.08l4.24.16,5.11.15c1.88.06,4.08.08,6.6.08Z"/><path class="cls-1" d="M468.79,1069.25H405a37.93,37.93,0,0,1-9.37-1,13.14,13.14,0,0,1-5.87-3.1,10.87,10.87,0,0,1-2.94-5.38,31.78,31.78,0,0,1-.74-7.29v-17a3.13,3.13,0,0,0-.77-.69,20.6,20.6,0,0,0-2.7-1.65c-1.06-.56-2.2-1.1-3.39-1.62a25.69,25.69,0,0,0-2.79-1.06l-.16-.06c-.33-.16-1.05-.69-.59-2.08a8.51,8.51,0,0,1,.8-1.69,15.85,15.85,0,0,1,1.09-1.59,2.32,2.32,0,0,1,1.81-1.1,30.78,30.78,0,0,1,3.33.25c1.42.15,2.95.34,4.58.55s3.31.48,4.93.79a28.66,28.66,0,0,1,4.32,1.15,11.73,11.73,0,0,1,1.74.86c.64.39,1.32,1.23.94,3.1-.2,1.09-.38,2.39-.53,3.84a38.85,38.85,0,0,0-.23,4.3v16.19c0,3.09.66,4,1.05,4.28.57.39,1.81.85,4.55.85l43.06-.16a8.94,8.94,0,0,0,2.94-.8c1.45-.56,2.88-1.19,4.25-1.85s2.69-1.31,3.84-1.88a6.6,6.6,0,0,1,2.65-1c.69,0,1.56.46,2.91,1.56a32.89,32.89,0,0,1,3.48,3.31,29.35,29.35,0,0,1,3.09,3.93,7.06,7.06,0,0,1,1.42,3.7C471.67,1067.54,471.47,1069.25,468.79,1069.25Zm-91.17-40.42c.66.23,1.46.54,2.36.94,1.24.53,2.42,1.1,3.53,1.68a23.37,23.37,0,0,1,2.95,1.8,3.22,3.22,0,0,1,1.59,2.3v17a30.12,30.12,0,0,0,.68,6.83,9,9,0,0,0,2.4,4.41,11.14,11.14,0,0,0,5,2.59,35.81,35.81,0,0,0,8.86.89h63.82c.71,0,.88-.16.88-.16a5.2,5.2,0,0,0-1.09-2.68,28.56,28.56,0,0,0-2.89-3.66,30.06,30.06,0,0,0-3.27-3.12,6.81,6.81,0,0,0-1.66-1.11,10.78,10.78,0,0,0-1.74.76q-1.74.87-3.87,1.89c-1.42.69-2.9,1.33-4.39,1.92a11.1,11.1,0,0,1-3.66.93l-43.07.16c-2.65,0-4.5-.4-5.68-1.2s-1.92-2.83-1.92-5.93v-16.19a42.73,42.73,0,0,1,.24-4.51c.16-1.53.34-2.83.56-4,.15-.75,0-1,0-1a11.26,11.26,0,0,0-1.43-.72,28.4,28.4,0,0,0-4-1c-1.58-.31-3.2-.57-4.81-.78s-3.13-.39-4.54-.55-2.34-.22-3-.23a1.52,1.52,0,0,0-.31.32,13.25,13.25,0,0,0-1,1.4A6.86,6.86,0,0,0,377.62,1028.83Zm75.76,11.3a6.21,6.21,0,0,1-1.32-.14l-.67-.15-.1-.69c-.32-2.24-.58-5.79-.79-10.55s-.32-9.93-.32-15.52V999.15H438.92a21.28,21.28,0,0,0-6.6.89,51.27,51.27,0,0,0-5.39,2.15l-.31.15-.33-.07a10.29,10.29,0,0,1-3.49-1.65,36.81,36.81,0,0,1-3.31-2.52,31.91,31.91,0,0,1-2.68-2.57l-1.4-1.51c-.42-.42-.8-1.24-.2-2.68.25-.61.73-1.74,1.71-1.74,1.34,0,2.7,0,4,.08l4.24.16,5.1.15c1.84.06,4,.08,6.58.08h13.3V969.28H438.92a21.28,21.28,0,0,0-6.6.89,50.48,50.48,0,0,0-5.39,2.16l-.31.14-.33-.07a10.34,10.34,0,0,1-3.49-1.64,38.36,38.36,0,0,1-3.31-2.53,29.06,29.06,0,0,1-2.68-2.57c-.73-.78-1.19-1.29-1.4-1.5-.42-.43-.8-1.25-.2-2.69.25-.6.73-1.73,1.71-1.73,1.36,0,2.72,0,4,.08l4.24.15c1.52.06,3.22.11,5.1.16s4,.08,6.58.08h13.3V940.48a4.57,4.57,0,0,0-1.19-1.17,32.47,32.47,0,0,0-3.73-2.5c-1.52-.89-3-1.74-4.54-2.57l-3.7-2a1.41,1.41,0,0,1-.51-2,4.9,4.9,0,0,1,1.08-1.49,9.78,9.78,0,0,1,1.49-1.22,3.17,3.17,0,0,1,1.73-.64,36.18,36.18,0,0,1,5.67.65c2.41.42,4.83.92,7.22,1.51A54.33,54.33,0,0,1,460,931c1.71.65,3.42,1.52,3.14,2.93a35.57,35.57,0,0,0-.46,3.81c-.1,1.43-.15,2.94-.15,4.49v70.89a92.68,92.68,0,0,1-1,14.62c-.63,3.78-1.27,7-1.9,9.51l-.06.24-.16.18a7.17,7.17,0,0,1-3.55,2.11A9.42,9.42,0,0,1,453.38,1040.13Zm-.21-2a6.68,6.68,0,0,0,2.22-.31,5.32,5.32,0,0,0,2.43-1.33c.6-2.44,1.21-5.5,1.81-9.1a91.23,91.23,0,0,0,.93-14.3V942.19c0-1.6.05-3.15.16-4.63a34.9,34.9,0,0,1,.44-3.81,7.08,7.08,0,0,0-1.85-.92,49.71,49.71,0,0,0-6.09-1.85c-2.34-.57-4.72-1.07-7.08-1.48a34.32,34.32,0,0,0-5.33-.62,1.52,1.52,0,0,0-.63.31,7.25,7.25,0,0,0-1.18,1,3.5,3.5,0,0,0-.49.58l3.17,1.74q2.29,1.26,4.58,2.6a33.63,33.63,0,0,1,4,2.66c1.37,1.09,1.95,1.89,1.95,2.66v21.81h-15.3c-2.58,0-4.75,0-6.63-.08l-5.12-.16c-1.52-.05-2.94-.1-4.25-.16s-2.38-.07-3.59-.07l-.24.51a1.65,1.65,0,0,0-.15.57l1.38,1.49a26.63,26.63,0,0,0,2.51,2.4,35.79,35.79,0,0,0,3.13,2.4,9.39,9.39,0,0,0,2.49,1.26,51.28,51.28,0,0,1,5.28-2.09,23.11,23.11,0,0,1,7.23-1h13.26v24.79h-15.3c-2.61,0-4.78,0-6.63-.08l-5.12-.15-4.25-.16c-1.19,0-2.39-.07-3.59-.08l-.24.51a1.7,1.7,0,0,0-.15.57l1.38,1.5a29.38,29.38,0,0,0,2.51,2.4,37.79,37.79,0,0,0,3.13,2.39,9.25,9.25,0,0,0,2.49,1.26,51.28,51.28,0,0,1,5.28-2.09,23.13,23.13,0,0,1,7.23-1h13.26v15.93c0,5.56.11,10.76.32,15.44C452.68,1032.71,452.91,1035.93,453.17,1038.12Zm-36.33-45.49h0Zm0-29.87h0Zm44.36-29.24h0ZM438,930.43l.06,0Zm-57.19,79.4a41.9,41.9,0,0,1-13.28-2,30.33,30.33,0,0,1-10.4-5.78,26,26,0,0,1-6.7-9A28.25,28.25,0,0,1,348,981.33c0-8.31,2.64-15.13,7.85-20.28,5.05-5,11.86-8,20.26-8.8a4.09,4.09,0,0,0,.34-1.26,5.4,5.4,0,0,0-.4-2.06,5,5,0,0,0-1.86-2l-.41-.3v-.51c0-.56.2-2.38,2.76-2.49a17.56,17.56,0,0,1,4.34.41,16.58,16.58,0,0,1,4.34,1.51c1.16.6,2.35,1.37,2.35,2.45a7.73,7.73,0,0,1-.7,2.73c-.23.57-.43,1.1-.63,1.6,8,.93,14.51,3.86,19.42,8.72,5.21,5.15,7.85,12,7.85,20.28a28.29,28.29,0,0,1-2.37,11.73,26.13,26.13,0,0,1-6.7,9,30.52,30.52,0,0,1-10.4,5.78A41.91,41.91,0,0,1,380.76,1009.83ZM376,945.76a6.27,6.27,0,0,1,2,2.42,6.11,6.11,0,0,1-.16,5.38l-.22.57-.62.06c-8.21.71-14.82,3.49-19.66,8.28S350,973.57,350,981.33a26.26,26.26,0,0,0,2.19,10.9,24,24,0,0,0,6.19,8.3,28.16,28.16,0,0,0,9.72,5.39,42.88,42.88,0,0,0,25.31,0,28.35,28.35,0,0,0,9.72-5.39,24.14,24.14,0,0,0,6.19-8.3,26.32,26.32,0,0,0,2.19-10.9c0-7.76-2.44-14.1-7.25-18.86s-11.4-7.57-19.51-8.28l-1.31-.12.47-1.23c.31-.84.68-1.79,1.1-2.85a7.18,7.18,0,0,0,.55-1.84,5,5,0,0,0-1.26-.83,14.76,14.76,0,0,0-3.83-1.32,15.61,15.61,0,0,0-3.84-.38A1.61,1.61,0,0,0,376,945.76Zm4.8,57c-6.32,0-11.5-2-15.4-5.83s-5.87-9.17-5.87-15.76c0-6.79,2-12.22,5.87-16.14s9.08-5.92,15.4-5.92,11.51,2,15.41,5.92,5.87,9.35,5.87,16.14c0,6.58-2,11.88-5.87,15.76S387.09,1002.76,380.76,1002.76Zm0-41.65c-5.77,0-10.47,1.79-14,5.33s-5.29,8.49-5.29,14.73c0,6,1.78,10.86,5.28,14.34s8.22,5.25,14,5.25,10.49-1.77,14-5.25S400,987.2,400,981.17c0-6.24-1.78-11.2-5.29-14.73S386.54,961.11,380.76,961.11Z"/><path class="cls-1" d="M627.23,996.1a6,6,0,0,1,2.43,1.34,39.78,39.78,0,0,1,3.7,3.13,34.41,34.41,0,0,1,3.38,3.73,5.75,5.75,0,0,1,1.49,3.15q0,1.23-1.89,1.23H573.47v21.85q0,16.5-1,27.19t-1.81,15.56a5.26,5.26,0,0,1-3.06,1.65,9.07,9.07,0,0,1-3.54.08q-.31-3.3-.63-13.36t-.31-27.19v-25.78H525.37a14.79,14.79,0,0,0-5.66,1.1c-1.78.73-3.51,1.47-5.18,2.2a22.13,22.13,0,0,1-4.88-1.65,32.31,32.31,0,0,1-4.63-2.65,39.26,39.26,0,0,1-3.62-2.77,5.24,5.24,0,0,1-1.65-1.92c-.1-.21,0-.67.32-1.4s.62-1,.94-.93a18.1,18.1,0,0,0,3.54.47c1.62.11,3.5.21,5.65.32s4.51.15,7.08.15H592q1.1-6.3,2-12.37T595.87,977q.86-6.15,1.57-12.7t1.34-13.63H542.35a22,22,0,0,0-6.92.94,50.43,50.43,0,0,0-5.5,2.2,13.75,13.75,0,0,1-4.79-1.65,33.68,33.68,0,0,1-4.4-2.83,38.62,38.62,0,0,1-3.38-2.83c-1-.89-1.52-1.44-1.73-1.65-.42-.42-.42-1,0-1.73s.78-1,1.1-.94a39.1,39.1,0,0,0,9.74,1.1h62.88a35.93,35.93,0,0,0,6-.39,7.19,7.19,0,0,0,3.61-1.65,6.9,6.9,0,0,1,2.75-.16,28.25,28.25,0,0,1,4.09.63,18.31,18.31,0,0,1,3.7,1.18c1,.47,1.51,1,1.41,1.49q-2.36,17.19-5.27,31.76t-5.89,25.45h13.83a10.05,10.05,0,0,0,3.3-.86c1.47-.58,2.91-1.2,4.33-1.89L625,997A7.24,7.24,0,0,1,627.23,996.1Z"/><path class="cls-1" d="M565.51,1076.15a8.93,8.93,0,0,1-1.67-.16l-.73-.15-.07-.74c-.21-2.23-.42-6.62-.63-13.42-.21-6.64-.31-15.8-.31-27.22v-24.78H525.37a13.74,13.74,0,0,0-5.27,1c-1.78.73-3.5,1.47-5.17,2.19l-.29.13-.31-.06a22.27,22.27,0,0,1-5.1-1.73,32.85,32.85,0,0,1-4.78-2.72,41.61,41.61,0,0,1-3.71-2.85,5.93,5.93,0,0,1-1.93-2.33,2.91,2.91,0,0,1,.34-2.14c.72-1.67,1.67-1.64,2.17-1.48a17,17,0,0,0,3.29.42c1.62.11,3.5.21,5.64.32s4.47.15,7,.15h73.9c.7-4.07,1.32-7.85,1.89-11.53.62-4,1.23-8.07,1.81-12.2s1.1-8.37,1.57-12.66c.42-4,.84-8.17,1.23-12.53H542.35a21.24,21.24,0,0,0-6.6.89,48.46,48.46,0,0,0-5.39,2.16l-.27.12-.29,0a14.76,14.76,0,0,1-5.14-1.76,34.65,34.65,0,0,1-4.53-2.92,41.48,41.48,0,0,1-3.46-2.89c-1-.9-1.54-1.46-1.75-1.68a2.25,2.25,0,0,1-.16-2.92c.68-1.21,1.45-1.67,2.28-1.4a38.2,38.2,0,0,0,9.43,1h62.88a34.79,34.79,0,0,0,5.79-.38,6.29,6.29,0,0,0,3.13-1.41l.13-.12.16-.06a7.51,7.51,0,0,1,3.2-.23,31.51,31.51,0,0,1,4.23.65,21.21,21.21,0,0,1,3.89,1.24c1.52.69,2.18,1.56,2,2.6-1.56,11.36-3.33,22.06-5.26,31.76-1.83,9.14-3.7,17.29-5.57,24.26h12.52a8.86,8.86,0,0,0,2.94-.79c1.44-.57,2.87-1.19,4.25-1.86s2.69-1.3,3.84-1.88a6.73,6.73,0,0,1,2.65-1c.49,0,1.2.19,3,1.53a42,42,0,0,1,3.79,3.22,35.42,35.42,0,0,1,3.48,3.83,6.59,6.59,0,0,1,1.7,3.77c0,.52-.21,2.23-2.89,2.23H574.47v20.85c0,11-.34,20.16-1,27.28s-1.29,12.39-1.81,15.63l0,.28-.19.22a6.34,6.34,0,0,1-3.62,2A11.44,11.44,0,0,1,565.51,1076.15Zm-.54-2a9.36,9.36,0,0,0,2.41-.18,4.45,4.45,0,0,0,2.32-1.13c.51-3.22,1.1-8.33,1.75-15.2.68-7.06,1-16.18,1-27.09v-22.85h63.87c.71,0,.89-.16.89-.16a4.66,4.66,0,0,0-1.28-2.61,33.34,33.34,0,0,0-3.28-3.61,39.44,39.44,0,0,0-3.6-3.06,7.17,7.17,0,0,0-1.85-1.13,9.37,9.37,0,0,0-1.75.75c-1.16.58-2.44,1.21-3.86,1.89s-2.91,1.34-4.39,1.92a10.84,10.84,0,0,1-3.67.93H598.41l.35-1.26c2-7.2,4-15.74,5.87-25.39s3.69-20.29,5.25-31.63a2.38,2.38,0,0,0-.83-.51,18.26,18.26,0,0,0-3.5-1.12,28.67,28.67,0,0,0-3.95-.6,7.28,7.28,0,0,0-2.16,0,8.27,8.27,0,0,1-4,1.75,35.55,35.55,0,0,1-6.14.41H526.47a40.78,40.78,0,0,1-9.71-1.06,2.3,2.3,0,0,0-.26.4,1.08,1.08,0,0,0-.19.5c.24.24.8.78,1.73,1.65a39.57,39.57,0,0,0,3.3,2.76,32.51,32.51,0,0,0,4.28,2.75,12.86,12.86,0,0,0,4.16,1.5,52.49,52.49,0,0,1,5.34-2.12,23.13,23.13,0,0,1,7.23-1h57.52l-.1,1.09c-.42,4.76-.87,9.35-1.34,13.65s-1,8.6-1.57,12.73-1.19,8.25-1.81,12.23-1.28,8-2,12.39l-.14.83H517.28c-2.59,0-5-.05-7.12-.15s-4.05-.21-5.68-.32a22.3,22.3,0,0,1-3.37-.41c0,.07-.08.15-.13.27a4.31,4.31,0,0,0-.26.75h0a5.67,5.67,0,0,0,1.34,1.42,39.52,39.52,0,0,0,3.53,2.7,31.27,31.27,0,0,0,4.49,2.56,20.07,20.07,0,0,0,4.34,1.51q2.39-1,4.91-2.08a15.81,15.81,0,0,1,6-1.17H564.1v26.78c0,11.4.1,20.53.31,27.16C564.6,1067.56,564.78,1071.76,565,1074.13Zm-64.24-72.51h0Zm109.16-57.36Zm-93.41-1.1h0Z"/><path class="cls-1" d="M786,1036a5.89,5.89,0,0,1,2.44,1.33,39.66,39.66,0,0,1,3.69,3.14,34.24,34.24,0,0,1,3.38,3.72,5.75,5.75,0,0,1,1.49,3.15c0,.82-.63,1.23-1.88,1.23h-111a14.75,14.75,0,0,0-5.66,1.1q-2.69,1.11-5.19,2.2a21.73,21.73,0,0,1-4.87-1.62,30.11,30.11,0,0,1-4.64-2.64,40.62,40.62,0,0,1-3.62-2.78,5.46,5.46,0,0,1-1.65-1.94c-.1-.21,0-.67.32-1.4s.63-1,.94-.93a18.91,18.91,0,0,0,3.54.47c1.62.1,3.51.21,5.66.31s4.5.16,7.07.16h47.08V1012c0-1-1-2-3-3.15s-3.93-2.2-5.82-3.14c-.21-.1-.23-.34-.07-.71a3.88,3.88,0,0,1,.86-1.18,9.33,9.33,0,0,1,1.34-1.1,2.31,2.31,0,0,1,1.17-.47,36,36,0,0,1,4.72.4,41.24,41.24,0,0,1,5.42,1.1,28.54,28.54,0,0,1,4.48,1.57q1.89.86,1.89,1.65l-2.2,34.58H772.3a10.11,10.11,0,0,0,3.31-.87q2.19-.86,4.32-1.88c1.41-.68,2.69-1.31,3.85-1.89A7.5,7.5,0,0,1,786,1036Zm-116.16-22.17a4.38,4.38,0,0,1-1.49-.78,10.7,10.7,0,0,1-2.75-3,2.73,2.73,0,0,1-.47-1.41,222.45,222.45,0,0,0,18.94-11.87,193,193,0,0,0,17.44-13.68,136.46,136.46,0,0,0,14.31-14.54,77.29,77.29,0,0,0,9.82-14.46c.21-.41,0-1-.63-1.8a18,18,0,0,0-2.43-2.44,36.91,36.91,0,0,0-3.15-2.36c-1.1-.73-2-1.31-2.75-1.73a2.41,2.41,0,0,1,.94-1.65c.63-.57,1.16-1.07,1.58-1.49s1.38-.26,3.22.16,3.85,1,6.05,1.73,4.32,1.52,6.37,2.35a31.38,31.38,0,0,1,4.32,2.05,13.25,13.25,0,0,1,1.65,1.18c.57.47.6,1.17.08,2.12a118.31,118.31,0,0,1-13.2,18.39q6.6,2.82,15.08,6.68l16.43,7.47q7.94,3.62,14,6.52a55,55,0,0,1,7.47,4,5.61,5.61,0,0,1,1.49,3.45,23.52,23.52,0,0,1,.23,5.11,19.39,19.39,0,0,1-.7,4.4c-.37,1.21-.82,1.6-1.34,1.18-1.26-.94-3.14-2.22-5.66-3.85s-5.42-3.46-8.72-5.5-6.87-4.19-10.69-6.44l-11.47-6.76q-5.74-3.37-11-6.37l-9.19-5.19a150.46,150.46,0,0,1-13,12.42q-6.84,5.82-13.83,10.77a162.44,162.44,0,0,1-13.83,8.8A131.87,131.87,0,0,1,669.82,1013.86Z"/><path class="cls-1" d="M673.39,1052.94l-.3-.06a22,22,0,0,1-5.1-1.7,31.53,31.53,0,0,1-4.79-2.71,43.51,43.51,0,0,1-3.71-2.86,6.09,6.09,0,0,1-1.93-2.35,2.87,2.87,0,0,1,.34-2.14c.73-1.68,1.67-1.65,2.17-1.49a17.89,17.89,0,0,0,3.29.43c1.62.1,3.5.21,5.65.31s4.47.16,7,.16h46.08V1012c0-.14-.12-.91-2.49-2.28-2-1.14-3.91-2.19-5.76-3.11a1.43,1.43,0,0,1-.55-2,4.85,4.85,0,0,1,1.07-1.49,10,10,0,0,1,1.49-1.23,3.2,3.2,0,0,1,1.73-.64,36.51,36.51,0,0,1,4.86.4,45,45,0,0,1,5.55,1.13,30.52,30.52,0,0,1,4.63,1.63c1.06.48,2.47,1.28,2.47,2.56L733,1040.53H772.3a8.94,8.94,0,0,0,2.94-.8c1.44-.56,2.87-1.18,4.25-1.85s2.69-1.31,3.84-1.88a6.65,6.65,0,0,1,2.65-1c.49,0,1.2.18,3,1.53a39,39,0,0,1,3.79,3.22,34.51,34.51,0,0,1,3.48,3.83,6.53,6.53,0,0,1,1.7,3.76c0,.52-.21,2.23-2.88,2.23h-111a13.8,13.8,0,0,0-5.28,1q-2.67,1.09-5.17,2.19Zm-13.92-10.27h0a5.75,5.75,0,0,0,1.34,1.43,41,41,0,0,0,3.53,2.71,29.45,29.45,0,0,0,4.49,2.55,20.51,20.51,0,0,0,4.34,1.49c1.59-.69,3.23-1.39,4.92-2.08a15.78,15.78,0,0,1,6-1.18h111c.71,0,.88-.15.88-.16a4.58,4.58,0,0,0-1.28-2.61,34.3,34.3,0,0,0-3.28-3.61,37.74,37.74,0,0,0-3.6-3A7.52,7.52,0,0,0,786,1037a10.22,10.22,0,0,0-1.76.76c-1.15.57-2.44,1.21-3.86,1.89s-2.91,1.33-4.39,1.91a10.91,10.91,0,0,1-3.67.94H730.84L733.1,1007a3.62,3.62,0,0,0-1.29-.81,27.7,27.7,0,0,0-4.33-1.52,41.06,41.06,0,0,0-5.3-1.07,34,34,0,0,0-4.58-.39,1.53,1.53,0,0,0-.62.31,7.59,7.59,0,0,0-1.18,1,4.76,4.76,0,0,0-.49.57c1.72.87,3.5,1.84,5.31,2.89,2.38,1.38,3.49,2.65,3.49,4v30.55H676c-2.59,0-5-.06-7.12-.16s-4-.21-5.68-.32a20.76,20.76,0,0,1-3.36-.41,2.61,2.61,0,0,0-.13.28A4.14,4.14,0,0,0,659.47,1042.67Zm0-1.12h0Zm55.26-36.76h0Zm-44.83,10.13-.33-.08a5.58,5.58,0,0,1-1.84-1,11.14,11.14,0,0,1-1.73-1.56,11.34,11.34,0,0,1-1.29-1.72,3.77,3.77,0,0,1-.61-1.93v-.59l.51-.29A221.23,221.23,0,0,0,683.47,996a194.75,194.75,0,0,0,17.36-13.6A138.27,138.27,0,0,0,715,968a76.58,76.58,0,0,0,9.66-14.2,2.44,2.44,0,0,0-.48-.8,16.56,16.56,0,0,0-2.3-2.29,33.7,33.7,0,0,0-3-2.29c-1.07-.72-2-1.29-2.7-1.7l-.5-.29v-.58a3.31,3.31,0,0,1,1.27-2.38c.62-.57,1.13-1.06,1.54-1.47.63-.62,1.75-.65,4.15-.11,1.85.43,3.92,1,6.15,1.76s4.37,1.54,6.43,2.38a32.49,32.49,0,0,1,4.47,2.12,14.88,14.88,0,0,1,1.75,1.25c.46.37,1.39,1.45.32,3.38a119.07,119.07,0,0,1-12.43,17.53c4.07,1.76,8.73,3.82,13.86,6.15l16.42,7.47c5.42,2.47,10,4.6,14,6.53a54,54,0,0,1,7.65,4.12,6.48,6.48,0,0,1,1.87,4.09,24.83,24.83,0,0,1,.24,5.32,20.25,20.25,0,0,1-.75,4.63c-.24.79-.62,1.73-1.48,2a1.52,1.52,0,0,1-1.44-.32c-1.2-.9-3-2.15-5.57-3.79s-5.47-3.48-8.71-5.49-6.8-4.15-10.67-6.43l-11.47-6.76c-3.81-2.24-7.51-4.38-11-6.36q-4.81-2.73-8.51-4.8a151.16,151.16,0,0,1-12.51,11.92c-4.55,3.87-9.22,7.51-13.9,10.82a158.87,158.87,0,0,1-13.92,8.86,132.83,132.83,0,0,1-13.23,6.57Zm-3.68-5.73c0,.11.12.24.2.39a9.21,9.21,0,0,0,1.07,1.41,8.22,8.22,0,0,0,1.42,1.28,4.6,4.6,0,0,0,.86.52,131,131,0,0,0,12.68-6.32,157.18,157.18,0,0,0,13.74-8.75c4.63-3.28,9.26-6.88,13.76-10.71a153.07,153.07,0,0,0,12.89-12.34l.53-.57.69.38,9.2,5.19c3.49,2,7.19,4.13,11,6.38l11.48,6.75c3.88,2.29,7.48,4.47,10.71,6.46s6.19,3.87,8.73,5.51c2.35,1.52,4.11,2.71,5.36,3.63,0-.11.09-.24.14-.41a18.54,18.54,0,0,0,.67-4.17,23.39,23.39,0,0,0-.23-4.89,4.55,4.55,0,0,0-1.16-2.85,54.82,54.82,0,0,0-7.24-3.87c-3.94-1.89-8.64-4.08-14-6.51l-16.42-7.47c-5.65-2.56-10.72-4.81-15.07-6.67L726,971l.9-1A117.24,117.24,0,0,0,740,951.75c.37-.67.21-.81.16-.85a13.67,13.67,0,0,0-1.54-1.1,32.1,32.1,0,0,0-4.18-2c-2-.83-4.14-1.61-6.31-2.34s-4.17-1.29-6-1.7a7.87,7.87,0,0,0-2.4-.32c-.41.41-.91.88-1.5,1.42a3.37,3.37,0,0,0-.42.46c.61.37,1.32.83,2.11,1.35a35.86,35.86,0,0,1,3.23,2.43,18.83,18.83,0,0,1,2.57,2.57c.34.42,1.35,1.68.75,2.88a79,79,0,0,1-10,14.66,139.2,139.2,0,0,1-14.4,14.64,195.19,195.19,0,0,1-17.54,13.75C678.6,1001.83,672.41,1005.72,666.23,1009.19Z"/></g></g></svg>